<svg xmlns="http://www.w3.org/2000/svg" xmlns:svg="http://www.w3.org/2000/svg" xmlns:xlink="http://www.w3.org/1999/xlink" version="1.0" height="570pt" width="950pt" viewBox="250 472 958 576" ><defs><style type="text/css">
            @font-face {
                font-family: 'noto_regular';
                src: url('https://app.creately.com/diagram/assets/fonts/noto/noto-regular.woff') format('woff'),
                     url('https://app.creately.com/diagram/assets/fonts/noto/noto-regular.woff2') format('woff2');
                font-weight: normal;
                font-style: normal;
            }
        p {
            margin: 0;
        }
        </style></defs><defs><style>
            span{ display: inline-block; }
        </style></defs><g id="bag4212id0"><g transform="translate(435 620)"><rect x="0" y="0" width="100" height="50" fill="rgba(255,255,255,1)" stroke="#75c19b" stroke-width="1.5" stroke-linecap="round" stroke-linejoin="round"/></g><g transform="translate(460.5, 635.5) rotate(0, 24.5, 9.5)" width="49" height="19"><text text-decoration="none" x="0.5" fill="rgb(75, 75, 75)" font-size="10pt" font-family="Lato"  y="17">Product</text><text text-decoration="none" x="48.5" fill="#4b4b4b" font-size="10pt" font-family="noto_regular"  y="17"></text></g></g><g id="1u08z0sf5t"><g transform="translate(260 580)"><ellipse cx="55.000001192092896" cy="25" rx="55.000001192092896" ry="25" fill="rgba(255,255,255,1)" stroke="#f6902a" stroke-width="1.5" stroke-linecap="round" stroke-linejoin="round"/></g><g transform="translate(272.0000011920929, 595.5) rotate(0, 43, 9.5)" width="86" height="19"><text text-decoration="none" x="2.5" fill="rgb(75, 75, 75)" font-size="10pt" font-family="Lato"  y="17">End_Location</text><text text-decoration="none" x="83.5" fill="#4b4b4b" font-size="10pt" font-family="noto_regular"  y="17"></text></g></g><g id="gvnrjvts32"><g><path d="M 435,645 L 370,605" fill="none" stroke="#a0a0a0" stroke-width="1.5" stroke-linecap="round" stroke-linejoin="round"/></g></g><g id="2pqivifae1"><g transform="translate(270 695)"><ellipse cx="50" cy="25" rx="50" ry="25" fill="rgba(255,255,255,1)" stroke="#f6902a" stroke-width="1.5" stroke-linecap="round" stroke-linejoin="round"/></g><g transform="translate(304, 710.5) rotate(0, 16, 9.5)" width="32" height="19"><text text-decoration="none" x="1.5" fill="rgb(75, 75, 75)" font-size="10pt" font-family="Lato"  y="17">Price</text><text text-decoration="none" x="30.5" fill="#4b4b4b" font-size="10pt" font-family="noto_regular"  y="17"></text></g></g><g id="3iwpbjx9nv"><g><path d="M 485,670 L 370,720" fill="none" stroke="#a0a0a0" stroke-width="1.5" stroke-linecap="round" stroke-linejoin="round"/></g></g><g id="14jlk2ch9r"><g transform="translate(365 485)"><ellipse cx="50" cy="25" rx="50" ry="25" fill="rgba(255,255,255,1)" stroke="#f6902a" stroke-width="1.5" stroke-linecap="round" stroke-linejoin="round"/></g><g transform="translate(400.5, 500.5) rotate(0, 14.5, 9.5)" width="29" height="19"><text text-decoration="underline" x="1" fill="rgb(75, 75, 75)" font-size="10pt" font-family="Lato"  y="17">P_ID</text><text text-decoration="none" x="28" fill="#4b4b4b" font-size="10pt" font-family="noto_regular"  y="17"></text></g></g><g id="28jhx0dz82"><g><path d="M 485,620 L 430,535" fill="none" stroke="#a0a0a0" stroke-width="1.5" stroke-linecap="round" stroke-linejoin="round"/></g></g><g id="bq6fpz9rsx"><g transform="translate(580 480)"><ellipse cx="50" cy="25" rx="50" ry="25" fill="rgba(255,255,255,1)" stroke="#f6902a" stroke-width="1.5" stroke-linecap="round" stroke-linejoin="round"/></g><g transform="translate(603, 495.5) rotate(0, 27, 9.5)" width="54" height="19"><text text-decoration="none" x="2" fill="rgb(75, 75, 75)" font-size="10pt" font-family="Lato"  y="17">P_Name</text><text text-decoration="none" x="52" fill="#4b4b4b" font-size="10pt" font-family="noto_regular"  y="17"></text></g></g><g id="1037l34hp3"><g><path d="M 535,645 L 615,530" fill="none" stroke="#a0a0a0" stroke-width="1.5" stroke-linecap="round" stroke-linejoin="round"/></g></g><g id="ich87ggzz4"><g transform="translate(675 565)"><path d="M 130,30 L 65,60 L 0,30 L 65,0 L 130,30 L 130,30 Z" fill="rgba(255,255,255,1)" stroke="#75c19b" stroke-width="1.5" stroke-linecap="round" stroke-linejoin="round"/></g><g transform="translate(724.5, 585.5) rotate(0, 15.5, 9.5)" width="31" height="19"><text text-decoration="none" x="2.5" fill="rgb(75, 75, 75)" font-size="10pt" font-family="Lato"  y="17">Sells</text><text text-decoration="none" x="28.5" fill="#4b4b4b" font-size="10pt" font-family="noto_regular"  y="17"></text></g></g><g id="10ncst57r2"><mask id="e8400" x="522" y="582" width="166" height="76" maskUnits="userSpaceOnUse"><rect x="522" y="582" width="166" height="76" fill="white" /><rect x="597" y="607.5" width="16" height="25" fill="black" /></mask><g mask="url(#e8400)"><path d="M 535,645 L 605,645 L 605,620 L 605,595 L 675,595" fill="none" stroke="#a0a0a0" stroke-width="1.5" stroke-linecap="round" stroke-linejoin="round"/></g><g transform="translate(600, 610.5)" width="10" height="19"><text text-decoration="none" x="0" fill="rgb(75, 75, 75)" font-weight="bold" font-size="9pt" font-family="Arial"  y="17">N</text><text text-decoration="none" x="10" fill="#4b4b4b" font-size="10pt" font-family="noto_regular"  y="17"></text></g></g><g id="2ezdohsbx7"><g transform="translate(950 620)"><rect x="0" y="0" width="100" height="50" fill="rgba(255,255,255,1)" stroke="#75c19b" stroke-width="1.5" stroke-linecap="round" stroke-linejoin="round"/></g><g transform="translate(981.5, 635.5) rotate(0, 18.5, 9.5)" width="37" height="19"><text text-decoration="none" x="2.5" fill="rgb(75, 75, 75)" font-size="10pt" font-family="Lato"  y="17">Seller</text><text text-decoration="none" x="34.5" fill="#4b4b4b" font-size="10pt" font-family="noto_regular"  y="17"></text></g></g><g id="1jan5qnd95"><mask id="06f04" x="792" y="582" width="171" height="76" maskUnits="userSpaceOnUse"><rect x="792" y="582" width="171" height="76" fill="white" /><rect x="869.5" y="607.5" width="16" height="25" fill="black" /></mask><g mask="url(#06f04)"><path d="M 805,595 L 877.5,595 L 877.5,620 L 877.5,645 L 950,645" fill="none" stroke="#a0a0a0" stroke-width="1.5" stroke-linecap="round" stroke-linejoin="round"/></g><g transform="translate(872.5, 610.5)" width="10" height="19"><text text-decoration="none" x="0" fill="rgb(75, 75, 75)" font-weight="bold" font-size="9pt" font-family="Arial"  y="17">N</text><text text-decoration="none" x="10" fill="#4b4b4b" font-size="10pt" font-family="noto_regular"  y="17"></text></g></g><g id="3res0awas7"><g transform="translate(815 480)"><ellipse cx="50" cy="25" rx="50" ry="25" fill="rgba(255,255,255,1)" stroke="#f6902a" stroke-width="1.5" stroke-linecap="round" stroke-linejoin="round"/></g><g transform="translate(853, 495.5) rotate(0, 12, 9.5)" width="24" height="19"><text text-decoration="none" x="1" fill="rgb(75, 75, 75)" font-size="10pt" font-family="Lato"  y="17">ETA</text><text text-decoration="none" x="23" fill="#4b4b4b" font-size="10pt" font-family="noto_regular"  y="17"></text></g></g><g id="20ivlk2jin"><g><path d="M 895,525 L 950,645" fill="none" stroke="#a0a0a0" stroke-width="1.5" stroke-linecap="round" stroke-linejoin="round"/></g></g><g id="35xlt791ob"><g transform="translate(965 475)"><ellipse cx="50" cy="25" rx="50" ry="25" fill="rgba(255,255,255,1)" stroke="#f6902a" stroke-width="1.5" stroke-linecap="round" stroke-linejoin="round"/></g><g transform="translate(1000.5, 490.5) rotate(0, 14.5, 9.5)" width="29" height="19"><text text-decoration="none" x="1" fill="rgb(75, 75, 75)" font-size="10pt" font-family="Lato"  y="17">P_ID</text><text text-decoration="none" x="28" fill="#4b4b4b" font-size="10pt" font-family="noto_regular"  y="17"></text></g></g><g id="3pf5jj99e9"><g><path d="M 1000,525 L 1000,620" fill="none" stroke="#a0a0a0" stroke-width="1.5" stroke-linecap="round" stroke-linejoin="round"/></g></g><g id="c4vgicja1c"><g transform="translate(1105 515)"><ellipse cx="50" cy="25" rx="50" ry="25" fill="rgba(255,255,255,1)" stroke="#f6902a" stroke-width="1.5" stroke-linecap="round" stroke-linejoin="round"/></g><g transform="translate(1138, 530.5) rotate(0, 17, 9.5)" width="34" height="19"><text text-decoration="none" x="1" fill="rgb(75, 75, 75)" font-size="10pt" font-family="Lato"  y="17">Track</text><text text-decoration="none" x="33" fill="#4b4b4b" font-size="10pt" font-family="noto_regular"  y="17"></text></g></g><g id="10gsboh685"><g><path d="M 1125,560 L 1050,645" fill="none" stroke="#a0a0a0" stroke-width="1.5" stroke-linecap="round" stroke-linejoin="round"/></g></g><g id="csimkqwy7u"><g transform="translate(1075 825)"><path d="M 130,30 L 65,60 L 0,30 L 65,0 L 130,30 L 130,30 Z" fill="rgba(255,255,255,1)" stroke="#75c19b" stroke-width="1.5" stroke-linecap="round" stroke-linejoin="round"/></g><g transform="translate(1087, 845.5) rotate(0, 53, 9.5)" width="106" height="19"><text text-decoration="none" x="3.5" fill="rgb(75, 75, 75)" font-size="10pt" font-family="Lato"  y="17">Generate&#160;</text><text text-decoration="none" x="61.5" fill="rgb(75, 75, 75)" font-size="10pt" font-family="Lato"  y="17">Report</text><text text-decoration="none" x="102.5" fill="#4b4b4b" font-size="10pt" font-family="noto_regular"  y="17"></text></g></g><g id="cpfcxz7gti"><mask id="815d8" x="1037" y="632" width="116" height="206" maskUnits="userSpaceOnUse"><rect x="1037" y="632" width="116" height="206" fill="white" /><rect x="1132" y="677.5" width="16" height="25" fill="black" /></mask><g mask="url(#815d8)"><path d="M 1050,645 L 1140,645 L 1140,825" fill="none" stroke="#a0a0a0" stroke-width="1.5" stroke-linecap="round" stroke-linejoin="round"/></g><g transform="translate(1135, 680.5)" width="10" height="19"><text text-decoration="none" x="0" fill="rgb(75, 75, 75)" font-weight="bold" font-size="9pt" font-family="Arial"  y="17">N</text><text text-decoration="none" x="10" fill="#4b4b4b" font-size="10pt" font-family="noto_regular"  y="17"></text></g></g><g id="13ik93ojxj"><g transform="translate(850 890)"><rect x="0" y="0" width="100" height="50" fill="rgba(255,255,255,1)" stroke="#75c19b" stroke-width="1.5" stroke-linecap="round" stroke-linejoin="round"/></g><g transform="translate(879, 905.5) rotate(0, 21, 9.5)" width="42" height="19"><text text-decoration="none" x="0.5" fill="rgb(75, 75, 75)" font-size="10pt" font-family="Lato"  y="17">Report</text><text text-decoration="none" x="41.5" fill="#4b4b4b" font-size="10pt" font-family="noto_regular"  y="17"></text></g></g><g id="33emvij5g1"><mask id="23146" x="887" y="842" width="201" height="61" maskUnits="userSpaceOnUse"><rect x="887" y="842" width="201" height="61" fill="white" /><rect x="962" y="842.5" width="16" height="25" fill="black" /></mask><g mask="url(#23146)"><path d="M 1075,855 L 900,855 L 900,890" fill="none" stroke="#a0a0a0" stroke-width="1.5" stroke-linecap="round" stroke-linejoin="round"/></g><g transform="translate(965, 845.5)" width="10" height="19"><text text-decoration="none" x="0" fill="rgb(75, 75, 75)" font-weight="bold" font-size="9pt" font-family="Arial"  y="17">N</text><text text-decoration="none" x="10" fill="#4b4b4b" font-size="10pt" font-family="noto_regular"  y="17"></text></g></g><g id="cl8es7sv03"><g transform="translate(1010 760)"><ellipse cx="50" cy="25" rx="50" ry="25" fill="rgba(255,255,255,1)" stroke="#f6902a" stroke-width="1.5" stroke-linecap="round" stroke-linejoin="round"/></g><g transform="translate(1018, 775.5) rotate(0, 42, 9.5)" width="84" height="19"><text text-decoration="none" x="3" fill="rgb(75, 75, 75)" font-size="10pt" font-family="Lato"  y="17">Customer_ID</text><text text-decoration="none" x="81" fill="#4b4b4b" font-size="10pt" font-family="noto_regular"  y="17"></text></g></g><g id="sqy0iq45q7"><g><path d="M 1000,670 L 1090,765" fill="none" stroke="#a0a0a0" stroke-width="1.5" stroke-linecap="round" stroke-linejoin="round"/></g></g><g id="y70q2g7uil"><g transform="translate(610 745)"><path d="M 130,30 L 65,60 L 0,30 L 65,0 L 130,30 L 130,30 Z" fill="rgba(255,255,255,1)" stroke="#75c19b" stroke-width="1.5" stroke-linecap="round" stroke-linejoin="round"/></g><g transform="translate(651.5, 765.5) rotate(0, 23.5, 9.5)" width="47" height="19"><text text-decoration="none" x="1.5" fill="rgb(75, 75, 75)" font-size="10pt" font-family="Lato"  y="17">Tracker</text><text text-decoration="none" x="45.5" fill="#4b4b4b" font-size="10pt" font-family="noto_regular"  y="17"></text></g></g><g id="2y3hgz91l5"><mask id="b8ecb" x="662" y="632" width="301" height="126" maskUnits="userSpaceOnUse"><rect x="662" y="632" width="301" height="126" fill="white" /><rect x="754.5" y="632.5" width="16" height="25" fill="black" /></mask><g mask="url(#b8ecb)"><path d="M 950,645 L 675,645 L 675,745" fill="none" stroke="#a0a0a0" stroke-width="1.5" stroke-linecap="round" stroke-linejoin="round"/></g><g transform="translate(757.5, 635.5)" width="10" height="19"><text text-decoration="none" x="0" fill="rgb(75, 75, 75)" font-weight="bold" font-size="9pt" font-family="Arial"  y="17">N</text><text text-decoration="none" x="10" fill="#4b4b4b" font-size="10pt" font-family="noto_regular"  y="17"></text></g></g><g id="2evqgulgnw"><g transform="translate(820 760)"><ellipse cx="50" cy="25" rx="50" ry="25" fill="rgba(255,255,255,1)" stroke="#f6902a" stroke-width="1.5" stroke-linecap="round" stroke-linejoin="round"/></g><g transform="translate(855.5, 775.5) rotate(0, 14.5, 9.5)" width="29" height="19"><text text-decoration="underline" x="1.5" fill="rgb(75, 75, 75)" font-size="10pt" font-family="Lato"  y="17">S_ID</text><text text-decoration="none" x="27.5" fill="#4b4b4b" font-size="10pt" font-family="noto_regular"  y="17"></text></g></g><g id="2old0wif1f"><g><path d="M 1000,670 L 870,760" fill="none" stroke="#a0a0a0" stroke-width="1.5" stroke-linecap="round" stroke-linejoin="round"/></g></g><g id="24pbafogtx"><g transform="translate(405 885)"><rect x="0" y="0" width="100" height="50" fill="rgba(255,255,255,1)" stroke="#75c19b" stroke-width="1.5" stroke-linecap="round" stroke-linejoin="round"/></g><g transform="translate(431, 900.5) rotate(0, 24, 9.5)" width="48" height="19"><text text-decoration="none" x="1" fill="rgb(75, 75, 75)" font-size="10pt" font-family="Lato"  y="17">Locator</text><text text-decoration="none" x="47" fill="#4b4b4b" font-size="10pt" font-family="noto_regular"  y="17"></text></g></g><g id="1wjrh5vzn0"><mask id="b2f5a" x="442" y="762" width="181" height="136" maskUnits="userSpaceOnUse"><rect x="442" y="762" width="181" height="136" fill="white" /><rect x="469.5" y="762.5" width="16" height="25" fill="black" /></mask><g mask="url(#b2f5a)"><path d="M 610,775 L 455,775 L 455,885" fill="none" stroke="#a0a0a0" stroke-width="1.5" stroke-linecap="round" stroke-linejoin="round"/></g><g transform="translate(472.5, 765.5)" width="10" height="19"><text text-decoration="none" x="0" fill="rgb(75, 75, 75)" font-weight="bold" font-size="9pt" font-family="Arial"  y="17">N</text><text text-decoration="none" x="10" fill="#4b4b4b" font-size="10pt" font-family="noto_regular"  y="17"></text></g></g><g id="1i8kcp4p2a"><g transform="translate(600 840)"><path d="M 130,30 L 65,60 L 0,30 L 65,0 L 130,30 L 130,30 Z" fill="rgba(255,255,255,1)" stroke="#75c19b" stroke-width="1.5" stroke-linecap="round" stroke-linejoin="round"/></g><g transform="translate(625, 860.5) rotate(0, 40, 9.5)" width="80" height="19"><text text-decoration="none" x="3" fill="rgb(75, 75, 75)" font-size="10pt" font-family="Lato"  y="17">Relationship</text><text text-decoration="none" x="77" fill="#4b4b4b" font-size="10pt" font-family="noto_regular"  y="17"></text></g></g><g id="2kzjixmh3d"><mask id="97f1d" x="492" y="857" width="121" height="66" maskUnits="userSpaceOnUse"><rect x="492" y="857" width="121" height="66" fill="white" /><rect x="544.5" y="877.5" width="16" height="25" fill="black" /></mask><g mask="url(#97f1d)"><path d="M 505,910 L 552.5,910 L 552.5,890 L 552.5,870 L 600,870" fill="none" stroke="#a0a0a0" stroke-width="1.5" stroke-linecap="round" stroke-linejoin="round"/></g><g transform="translate(547.5, 880.5)" width="10" height="19"><text text-decoration="none" x="0" fill="rgb(75, 75, 75)" font-weight="bold" font-size="9pt" font-family="Arial"  y="17">N</text><text text-decoration="none" x="10" fill="#4b4b4b" font-size="10pt" font-family="noto_regular"  y="17"></text></g></g><g id="c2i0jxzjr5"><mask id="6befa" x="717" y="857" width="146" height="71" maskUnits="userSpaceOnUse"><rect x="717" y="857" width="146" height="71" fill="white" /><rect x="782" y="880" width="16" height="25" fill="black" /></mask><g mask="url(#6befa)"><path d="M 730,870 L 790,870 L 790,892.5 L 790,915 L 850,915" fill="none" stroke="#a0a0a0" stroke-width="1.5" stroke-linecap="round" stroke-linejoin="round"/></g><g transform="translate(785, 883)" width="10" height="19"><text text-decoration="none" x="0" fill="rgb(75, 75, 75)" font-weight="bold" font-size="9pt" font-family="Arial"  y="17">N</text><text text-decoration="none" x="10" fill="#4b4b4b" font-size="10pt" font-family="noto_regular"  y="17"></text></g></g><g id="1zwy9sl40z"><g transform="translate(1075 945)"><ellipse cx="62.5" cy="25" rx="62.5" ry="25" fill="rgba(255,255,255,1)" stroke="#f6902a" stroke-width="1.5" stroke-linecap="round" stroke-linejoin="round"/></g><g transform="translate(1086.5, 960.5) rotate(0, 51, 9.5)" width="102" height="19"><text text-decoration="none" x="4" fill="rgb(75, 75, 75)" font-size="10pt" font-family="Lato"  y="17">Product_Details</text><text text-decoration="none" x="98" fill="#4b4b4b" font-size="10pt" font-family="noto_regular"  y="17"></text></g></g><g id="1bqo8b69tx"><g><path d="M 1075,970 L 950,915" fill="none" stroke="#a0a0a0" stroke-width="1.5" stroke-linecap="round" stroke-linejoin="round"/></g></g><g id="1ga79atza6"><g transform="translate(785 990)"><ellipse cx="50" cy="25" rx="50" ry="25" fill="rgba(255,255,255,1)" stroke="#f6902a" stroke-width="1.5" stroke-linecap="round" stroke-linejoin="round"/></g><g transform="translate(820, 1005.5) rotate(0, 15, 9.5)" width="30" height="19"><text text-decoration="underline" x="1.5" fill="rgb(75, 75, 75)" font-size="10pt" font-family="Lato"  y="17">R_ID</text><text text-decoration="none" x="28.5" fill="#4b4b4b" font-size="10pt" font-family="noto_regular"  y="17"></text></g></g><g id="1nknmq2qh5"><g><path d="M 865,995 L 900,940" fill="none" stroke="#a0a0a0" stroke-width="1.5" stroke-linecap="round" stroke-linejoin="round"/></g></g><g id="1tinr5e5s7"><g transform="translate(260 795)"><ellipse cx="65.00000357627869" cy="30.1239013671875" rx="65.00000357627869" ry="30.1239013671875" fill="rgba(255,255,255,1)" stroke="#f6902a" stroke-width="1.5" stroke-linecap="round" stroke-linejoin="round"/></g><g transform="translate(270.0000035762787, 815.6239013671875) rotate(0, 55, 9.5)" width="110" height="19"><text text-decoration="none" x="3" fill="rgb(75, 75, 75)" font-size="10pt" font-family="Lato"  y="17">Current_Location</text><text text-decoration="none" x="107" fill="#4b4b4b" font-size="10pt" font-family="noto_regular"  y="17"></text></g></g><g id="rynwtt04k9"><g><path d="M 365,850 L 405,910" fill="none" stroke="#a0a0a0" stroke-width="1.5" stroke-linecap="round" stroke-linejoin="round"/></g></g><g id="dkc1p1j762"><g transform="translate(255 980)"><ellipse cx="50" cy="25" rx="50" ry="25" fill="rgba(255,255,255,1)" stroke="#f6902a" stroke-width="1.5" stroke-linecap="round" stroke-linejoin="round"/></g><g transform="translate(291, 995.5) rotate(0, 14, 9.5)" width="28" height="19"><text text-decoration="underline" x="1" fill="rgb(75, 75, 75)" font-size="10pt" font-family="Lato"  y="17">L_ID</text><text text-decoration="none" x="27" fill="#4b4b4b" font-size="10pt" font-family="noto_regular"  y="17"></text></g></g><g id="1dvk87f358"><g><path d="M 335,985 L 405,910" fill="none" stroke="#a0a0a0" stroke-width="1.5" stroke-linecap="round" stroke-linejoin="round"/></g></g><g id="3iok48tbt3"><g transform="translate(395 995)"><ellipse cx="50" cy="25" rx="50" ry="25" fill="rgba(255,255,255,1)" stroke="#f6902a" stroke-width="1.5" stroke-linecap="round" stroke-linejoin="round"/></g><g transform="translate(430.5, 1010.5) rotate(0, 14.5, 9.5)" width="29" height="19"><text text-decoration="none" x="1.5" fill="rgb(75, 75, 75)" font-size="10pt" font-family="Lato"  y="17">S_ID</text><text text-decoration="none" x="27.5" fill="#4b4b4b" font-size="10pt" font-family="noto_regular"  y="17"></text></g></g><g id="9dtmbm5mh0"><g transform="translate(570 970)"><ellipse cx="50" cy="25" rx="50" ry="25" fill="rgba(255,255,255,1)" stroke="#f6902a" stroke-width="1.5" stroke-linecap="round" stroke-linejoin="round"/></g><g transform="translate(593.5, 985.5) rotate(0, 26.5, 9.5)" width="53" height="19"><text text-decoration="none" x="2" fill="rgb(75, 75, 75)" font-size="10pt" font-family="Lato"  y="17">L_Name</text><text text-decoration="none" x="51" fill="#4b4b4b" font-size="10pt" font-family="noto_regular"  y="17"></text></g></g><g id="22c9jqzkin"><g><path d="M 460,995 L 455,935" fill="none" stroke="#a0a0a0" stroke-width="1.5" stroke-linecap="round" stroke-linejoin="round"/></g></g><g id="fwc72d0zh0"><g><path d="M 570,995 L 455,935" fill="none" stroke="#a0a0a0" stroke-width="1.5" stroke-linecap="round" stroke-linejoin="round"/></g></g></svg>